<?xml version="1.0" encoding="UTF-8" standalone="no"?>
<!-- Created with Inkscape (http://www.inkscape.org/) -->

<svg
   width="400mm"
   height="400mm"
   viewBox="0 0 100 100"
   version="1.1"
   id="svg1"
   xml:space="preserve"
   inkscape:version="1.3.2 (091e20e, 2023-11-25, custom)"
   sodipodi:docname="eris.svg"
   inkscape:export-filename="eris.svg"
   inkscape:export-xdpi="100"
   inkscape:export-ydpi="100"
   xmlns:inkscape="http://www.inkscape.org/namespaces/inkscape"
   xmlns:sodipodi="http://sodipodi.sourceforge.net/DTD/sodipodi-0.dtd"
   xmlns="http://www.w3.org/2000/svg"
   xmlns:svg="http://www.w3.org/2000/svg"><sodipodi:namedview
     id="namedview1"
     pagecolor="#505050"
     bordercolor="#ffffff"
     borderopacity="1"
     inkscape:showpageshadow="0"
     inkscape:pageopacity="0"
     inkscape:pagecheckerboard="1"
     inkscape:deskcolor="#505050"
     inkscape:document-units="mm"
     inkscape:zoom="0.72625764"
     inkscape:cx="83.992232"
     inkscape:cy="479.85726"
     inkscape:window-width="3440"
     inkscape:window-height="1377"
     inkscape:window-x="-8"
     inkscape:window-y="-8"
     inkscape:window-maximized="1"
     inkscape:current-layer="layer1" /><defs
     id="defs1"><inkscape:path-effect
       effect="powerclip"
       id="path-effect5"
       is_visible="true"
       lpeversion="1"
       inverse="true"
       flatten="false"
       hide_clip="false"
       message="Use fill-rule evenodd on &lt;b&gt;fill and stroke&lt;/b&gt; dialog if no flatten result after convert clip to paths." /><clipPath
       clipPathUnits="userSpaceOnUse"
       id="clipPath5"><circle
         style="display:none;opacity:0.33;fill:#000000;stroke-width:1.08769"
         id="circle5"
         cx="118.65428"
         cy="178.42271"
         r="38.563015"
         d="M 157.2173,178.42271 A 38.563015,38.563015 0 0 1 118.65428,216.98573 38.563015,38.563015 0 0 1 80.091267,178.42271 38.563015,38.563015 0 0 1 118.65428,139.8597 38.563015,38.563015 0 0 1 157.2173,178.42271 Z" /><path
         id="lpe_path-effect5"
         style="opacity:0.33;fill:#000000;stroke-width:1.08769"
         class="powerclip"
         d="M 66.580971,134.4354 H 160.2898 v 86.05831 H 66.580971 Z m 90.636329,43.98731 a 38.563015,38.563015 0 0 0 -38.56302,-38.56301 38.563015,38.563015 0 0 0 -38.563013,38.56301 38.563015,38.563015 0 0 0 38.563013,38.56302 38.563015,38.563015 0 0 0 38.56302,-38.56302 z" /></clipPath></defs><g
     inkscape:label="Layer 1"
     inkscape:groupmode="layer"
     id="layer1"><a
       id="a5"
       inkscape:label="a5"
       style="opacity:0.33"
       transform="translate(-51.732101,-128.05517)"><path
         style="opacity:1;fill:#000000;stroke-width:1.07263"
         id="path4-3"
         clip-path="url(#clipPath5)"
         transform="matrix(1,0.00957977,0,1,3.1750001,-1.0866849)"
         d="M 155.2898,177.46455 A 41.854416,38.029156 0 0 1 113.43539,215.49371 41.854416,38.029156 0 0 1 71.580971,177.46455 41.854416,38.029156 0 0 1 113.43539,139.4354 41.854416,38.029156 0 0 1 155.2898,177.46455 Z"
         sodipodi:type="arc"
         sodipodi:ry="38.029156"
         sodipodi:rx="41.854416"
         sodipodi:cy="177.46455"
         sodipodi:cx="113.43539"
         inkscape:path-effect="#path-effect5" /><path
         style="opacity:1;mix-blend-mode:normal;fill:#000000;stroke-width:1"
         d="m 99.60133,169.17493 -9.424591,0.11693 -1.262849,2.47892 -18.45162,0.28064 -7.904497,7.90449 0.04677,10.52374 8.30379,10.86827 36.380207,-0.13229 3.175,-5.22553 12.89844,-0.0661 2.77812,-5.15942 8.0698,-0.13229 -0.16087,-8.10391 h -10.61728 l -0.0468,-2.50231 10.68747,-0.11693 -0.0935,-8.04481 -18.49844,-0.0702 -2.08136,-2.43211 -3.18051,-0.0702 -0.0468,-5.1449 -7.97462,-0.0702"
         id="path5" /></a></g></svg>
